<svg width="20" height="20" viewBox="0 0 20 20" fill="none" xmlns="http://www.w3.org/2000/svg">
<path fill-rule="evenodd" clip-rule="evenodd" d="M16.301 2.32871V0.388119C16.301 0.285183 16.3419 0.186464 16.4147 0.113677C16.4875 0.040891 16.5862 0 16.6891 0C16.792 0 16.8908 0.040891 16.9636 0.113677C17.0363 0.186464 17.0772 0.285183 17.0772 0.388119V2.32871H19.0178C19.1208 2.32871 19.2195 2.3696 19.2923 2.44239C19.365 2.51518 19.4059 2.6139 19.4059 2.71683C19.4059 2.81977 19.365 2.91849 19.2923 2.99127C19.2195 3.06406 19.1208 3.10495 19.0178 3.10495H17.0772V16.301H19.0178C19.1208 16.301 19.2195 16.3419 19.2923 16.4147C19.365 16.4875 19.4059 16.5862 19.4059 16.6891C19.4059 16.792 19.365 16.8908 19.2923 16.9636C19.2195 17.0363 19.1208 17.0772 19.0178 17.0772H17.0772V19.0178C17.0772 19.2319 16.9034 19.4059 16.6891 19.4059C16.4749 19.4059 16.301 19.2319 16.301 19.0178V17.0772H3.10495V19.0178C3.10495 19.2319 2.93109 19.4059 2.71683 19.4059C2.50257 19.4059 2.32871 19.2319 2.32871 19.0178V17.0772H0.388119C0.285183 17.0772 0.186464 17.0363 0.113677 16.9636C0.040891 16.8908 0 16.792 0 16.6891C0 16.5862 0.040891 16.4875 0.113677 16.4147C0.186464 16.3419 0.285183 16.301 0.388119 16.301H2.32871V3.10495H0.388119C0.285183 3.10495 0.186464 3.06406 0.113677 2.99127C0.040891 2.91849 0 2.81977 0 2.71683C0 2.6139 0.040891 2.51518 0.113677 2.44239C0.186464 2.3696 0.285183 2.32871 0.388119 2.32871H2.32871V0.388119C2.32871 0.285183 2.3696 0.186464 2.44239 0.113677C2.51518 0.040891 2.6139 0 2.71683 0C2.81977 0 2.91849 0.040891 2.99127 0.113677C3.06406 0.186464 3.10495 0.285183 3.10495 0.388119V2.32871H16.301ZM3.10495 3.10495V16.301H16.301V3.10495H3.10495ZM15.2115 7.14594V12.3057C15.2115 12.4499 15.1713 12.5912 15.0955 12.7138C15.0197 12.8364 14.9113 12.9355 14.7824 13L10.0911 15.3457V9.70614L15.2115 7.14594ZM9.31485 9.69683V15.3457L4.62356 13C4.49463 12.9355 4.38619 12.8364 4.3104 12.7138C4.23461 12.5912 4.19446 12.4499 4.19446 12.3057V7.13663L9.31485 9.69683ZM4.54733 6.4495C4.57168 6.43366 4.59723 6.41921 4.62356 6.40594L9.35584 4.0396C9.46364 3.98579 9.58248 3.95778 9.70297 3.95778C9.82346 3.95778 9.9423 3.98579 10.0501 4.0396L14.7824 6.40594C14.8117 6.42059 14.8398 6.43703 14.8667 6.45485L9.71228 9.03208L4.54733 6.4495Z" fill="#303030"/>
</svg>
